#!OML:ASF F:\VICON\USERDATA\INSTALL\rory3\rory3.ASF
:FULLY-SPECIFIED
:DEGREES
1893
root -0.560576 17.6981 0.835702 7.95029 12.4077 1.08988
lowerback 10.5681 0.708369 2.53886
upperback 1.48402 1.32019 1.75138
thorax -4.36195 0.626737 0.207656
lowerneck -17.9 -13.433 -12.2866
upperneck 17.1711 -17.7426 11.2265
head 10.5825 -7.86934 3.08967
rclavicle -2.78299e-015 -1.82882e-014
rhumerus 28.4246 -14.8331 -28.8409
rradius 51.8469
rwrist 38.4047
rhand -67.6111 -16.0589
rfingers 7.12502
rthumb -39.3629 -41.474
lclavicle -2.78299e-015 -1.82882e-014
lhumerus -41.9469 5.15573 70.9263
lradius 59.861
lwrist -1.96507
lhand -21.4353 24.0419
lfingers 7.12502
lthumb 4.95402 53.964
rfemur -22.3794 -9.35127 19.6095
rtibia 38.5621
rfoot -22.7395 -9.61192
rtoes 4.59358
lfemur -12.4054 -7.8573 -7.32629
ltibia 14.7095
lfoot -6.78701 5.65332
ltoes -28.7189
1894
root -0.554787 17.6991 0.829209 8.00715 11.6959 1.15391
lowerback 10.6204 0.820045 2.70545
upperback 1.48763 1.48689 1.71638
thorax -4.37974 0.705625 0.0534615
lowerneck -18.1005 -13.3723 -12.2431
upperneck 17.3629 -17.6378 11.1003
head 10.6566 -7.81824 3.04875
rclavicle -1.72943e-014 2.46493e-014
rhumerus 29.7292 -15.036 -29.7163
rradius 52.3867
rwrist 38.7737
rhand -67.8235 -17.1833
rfingers 7.12502
rthumb -39.5629 -42.5397
lclavicle -1.72943e-014 2.46493e-014
lhumerus -42.0812 5.52287 70.7569
lradius 59.6014
lwrist -1.80994
lhand -21.7031 22.8476
lfingers 7.12502
lthumb 4.69547 52.7756
rfemur -22.5473 -8.88176 19.4611
rtibia 38.5642
rfoot -22.6287 -9.44208
rtoes 4.62666
lfemur -12.2052 -7.66764 -7.48009
ltibia 14.6523
lfoot -6.81539 6.13068
ltoes -28.6607
1895
root -0.548606 17.6995 0.824814 8.0791 10.9182 1.28835
lowerback 10.5136 0.958523 2.82248
upperback 1.55441 1.67358 1.65489
thorax -4.24199 0.797368 -0.0996698
lowerneck -18.2293 -13.2722 -12.0706
upperneck 17.4242 -17.4693 10.8343
head 10.6348 -7.7525 2.95885
rclavicle -2.66371e-014 -1.66979e-014
rhumerus 30.881 -14.8788 -30.2811
rradius 52.9992
rwrist 39.0493
rhand -68.2525 -18.786
rfingers 7.12502
rthumb -39.9668 -44.022
lclavicle -2.66371e-014 -1.66979e-014
lhumerus -42.1403 5.76418 70.664
lradius 59.3641
lwrist -1.51153
lhand -22.6112 19.2287
lfingers 7.12502
lthumb 3.81856 49.1742
rfemur -22.6893 -8.45023 19.2389
rtibia 38.525
rfoot -22.5051 -9.19436
rtoes 4.95054
lfemur -11.9994 -7.46687 -7.72897
ltibia 14.6319
lfoot -6.85044 6.68069
ltoes -28.4586
1896
root -0.542785 17.6995 0.823182 8.09791 10.0276 1.42562
lowerback 10.4828 1.14308 2.89931
upperback 1.58845 1.92074 1.59369
thorax -4.1794 0.918585 -0.239287
lowerneck -18.1801 -13.1475 -11.9529
upperneck 17.4575 -17.2679 10.5673
head 10.5728 -7.68402 2.89231
rclavicle 5.20816e-014 -7.95139e-015
rhumerus 31.7891 -14.2906 -30.4773
rradius 53.6294
rwrist 39.1747
rhand -68.3085 -19.0412
rfingers 7.12502
rthumb -40.0196 -44.2613
lclavicle 5.20816e-014 -7.95139e-015
lhumerus -42.3532 5.86739 70.5846
lradius 59.172
lwrist -1.24948
lhand -22.3557 21.7111
lfingers 7.12502
lthumb 4.06534 51.6521
rfemur -22.7918 -7.91916 18.976
rtibia 38.4673
rfoot -22.3379 -8.86504
rtoes 5.68908
lfemur -11.6822 -7.19898 -8.01743
ltibia 14.6242
lfoot -6.90242 7.25287
ltoes -28.2123
1897
root -0.538047 17.7006 0.820265 8.13205 9.20997 1.44547
lowerback 10.5326 1.29356 3.06799
upperback 1.56418 2.14071 1.5812
thorax -4.22046 1.02348 -0.378491
lowerneck -18.1361 -13.0307 -11.96
upperneck 17.5345 -17.0718 10.3954
head 10.5513 -7.61405 2.87411
rclavicle 1.70955e-014 -1.03368e-014
rhumerus 32.5084 -13.3379 -30.4067
rradius 54.2544
rwrist 39.2558
rhand -68.2551 -17.9342
rfingers 7.12502
rthumb -39.9693 -43.1695
lclavicle 1.70955e-014 -1.03368e-014
lhumerus -42.6211 5.87125 70.5092
lradius 58.9726
lwrist -0.875061
lhand -22.898 20.5726
lfingers 7.12502
lthumb 3.54158 50.5229
rfemur -22.9128 -7.43465 18.8605
rtibia 38.4145
rfoot -22.153 -8.53912
rtoes 6.0937
lfemur -11.4617 -6.85558 -8.17288
ltibia 14.6521
lfoot -6.95122 7.69137
ltoes -28.1053
1898
root -0.535231 17.7009 0.818607 8.23388 8.51125 1.54292
lowerback 10.5061 1.38859 3.16109
upperback 1.52621 2.27516 1.55153
thorax -4.23691 1.08743 -0.479704
lowerneck -18.1465 -12.8853 -11.8096
upperneck 17.5703 -16.8295 10.068
head 10.4885 -7.52883 2.78625
rclavicle -2.90226e-014 3.18055e-015
rhumerus 33.0537 -12.1061 -30.2319
rradius 54.8784
rwrist 39.4642
rhand -68.4819 -16.9963
rfingers 7.12502
rthumb -40.1827 -42.167
lclavicle -2.90226e-014 3.18055e-015
lhumerus -42.8513 5.98356 70.4274
lradius 58.7515
lwrist -0.683086
lhand -23.1623 19.1765
lfingers 7.12502
lthumb 3.28634 49.1309
rfemur -23.0786 -7.10466 18.6915
rtibia 38.3974
rfoot -22.025 -8.16728
rtoes 6.01433
lfemur -11.3844 -6.48158 -8.38052
ltibia 14.7349
lfoot -7.00492 8.00029
ltoes -27.5405
1899
root -0.533945 17.7005 0.819754 8.28887 7.86562 1.64991
lowerback 10.5179 1.49715 3.22096
upperback 1.46059 2.42586 1.50857
thorax -4.30318 1.15872 -0.579917
lowerneck -17.9905 -12.8046 -11.9809
upperneck 17.6479 -16.7016 10.0941
head 10.4921 -7.48335 2.85164
rclavicle -3.97569e-015 -9.54166e-015
rhumerus 33.2694 -10.6945 -29.85
rradius 55.4462
rwrist 39.8368
rhand -68.802 -15.3111
rfingers 7.12502
rthumb -40.4838 -40.3893
lclavicle -3.97569e-015 -9.54166e-015
lhumerus -43.0673 6.13726 70.328
lradius 58.5194
lwrist -0.785427
lhand -23.0357 19.3262
lfingers 7.12502
lthumb 3.40866 49.2787
rfemur -23.2031 -6.88592 18.5212
rtibia 38.4153
rfoot -21.9104 -7.74392
rtoes 5.87368
lfemur -11.2807 -6.10652 -8.60117
ltibia 14.845
lfoot -7.03415 8.27227
ltoes -27.5693
1900
root -0.535726 17.6985 0.820903 8.2869 7.35631 1.74872
lowerback 10.5913 1.58088 3.26622
upperback 1.40923 2.54413 1.45831
thorax -4.38964 1.21386 -0.677066
lowerneck -17.9806 -12.7287 -12.1898
upperneck 17.9516 -16.6062 10.2284
head 10.6225 -7.43222 2.94445
rclavicle -3.77691e-014 -1.43125e-014
rhumerus 33.2456 -9.19754 -29.2659
rradius 56.0173
rwrist 40.276
rhand -68.8798 -12.8772
rfingers 7.12502
rthumb -40.5569 -37.9328
lclavicle -3.77691e-014 -1.43125e-014
lhumerus -43.256 6.26131 70.1772
lradius 58.3031
lwrist -0.926616
lhand -22.6634 20.4608
lfingers 7.12502
lthumb 3.76816 50.4072
rfemur -23.2864 -6.79921 18.4
rtibia 38.4657
rfoot -21.7037 -7.50086
rtoes 5.61307
lfemur -11.1272 -5.91927 -8.77312
ltibia 14.9356
lfoot -7.13579 8.5754
ltoes -27.4346
1901
root -0.539469 17.6988 0.821996 8.29513 7.03989 1.80595
lowerback 10.5752 1.62768 3.34198
upperback 1.42717 2.61214 1.4371
thorax -4.35523 1.24667 -0.749971
lowerneck -18.0984 -12.6604 -12.1429
upperneck 18.1331 -16.5151 10.1704
head 10.6886 -7.38508 2.92802
rclavicle -3.49861e-014 1.19271e-014
rhumerus 33.0677 -7.76353 -28.5722
rradius 56.5941
rwrist 40.9561
rhand -69.0403 -11.5781
rfingers 7.12502
rthumb -40.7078 -36.5867
lclavicle -3.49861e-014 1.19271e-014
lhumerus -43.2988 6.40808 70.0902
lradius 58.1441
lwrist -1.1205
lhand -22.1831 21.9245
lfingers 7.12502
lthumb 4.23198 51.8622
rfemur -23.368 -6.81368 18.3529
rtibia 38.527
rfoot -21.5324 -7.38754
rtoes 5.1786
lfemur -11.0434 -5.7609 -8.86366
ltibia 15.0024
lfoot -7.21927 8.71299
ltoes -27.0034
1902
root -0.544013 17.6997 0.823288 8.34347 6.85028 1.8641
lowerback 10.4832 1.63771 3.37474
upperback 1.42121 2.62542 1.44606
thorax -4.3088 1.25351 -0.75771
lowerneck -17.9908 -12.623 -12.1118
upperneck 18.1276 -16.4722 10.1286
head 10.6548 -7.37266 2.9229
rclavicle -7.95139e-016 2.38542e-015
rhumerus 32.7415 -6.19469 -27.6815
rradius 57.1962
rwrist 41.6149
rhand -69.3997 -9.96476
rfingers 7.12502
rthumb -41.0454 -34.8667
lclavicle -7.95139e-016 2.38542e-015
lhumerus -43.3588 6.55354 70.0895
lradius 58.0297
lwrist -1.24162
lhand -22.3572 21.4905
lfingers 7.12502
lthumb 4.06383 51.4315
rfemur -23.4787 -6.87753 18.3126
rtibia 38.6007
rfoot -21.4482 -7.21163
rtoes 5.08536
lfemur -11.0395 -5.62154 -8.93847
ltibia 15.0016
lfoot -7.16834 8.74088
ltoes -26.8564
